<?xml version="1.0" encoding="UTF-8"?>
<!-- Generator: visioncortex VTracer 0.6.5 -->
<svg version="1.1" xmlns="http://www.w3.org/2000/svg" width="520" height="223">
<path d="M0 0 C5.89 4.11 8.69 9.03 10.64 15.84 C12.19 25.08 9.86 31.79 5.49 39.76 C2.8 44.77 2.06 48.13 2.64 53.84 C3.56 56.6 3.56 56.6 4.83 58.97 C5.23 59.76 5.64 60.54 6.06 61.35 C14.21 74.2 27.49 81.01 41.98 84.39 C44.79 84.87 47.4 84.97 50.25 84.98 C51.31 85 52.38 85.02 53.48 85.04 C55.69 85.08 57.91 85.1 60.12 85.1 C69.64 85.32 76.84 87.69 83.58 94.59 C88.06 100.21 90.28 106.6 89.92 113.81 C88.84 121.74 85.69 127.58 79.64 132.84 C72.5 138.01 65.29 139.14 56.64 137.84 C49.23 135.59 43.91 131.25 39.64 124.84 C37.82 121.33 36.86 117.63 35.79 113.84 C30.43 95.39 19.79 82.16 3.58 71.91 C-0.28 70.51 -3.27 70.63 -7.36 70.84 C-8.61 72.84 -8.61 72.84 -9.36 75.84 C-7.34 82.44 -2.8 88.01 2.64 92.09 C7.65 96.2 10.21 101.72 11.09 108.07 C11.38 116.66 9.37 122.4 4.95 129.59 C-1.68 136.05 -9.17 138.21 -18.22 138.12 C-26.21 137.41 -32.73 133.17 -37.84 127.09 C-42.65 120.02 -42.38 112.01 -41.36 103.84 C-39.16 96.64 -34.07 92.43 -28.36 87.84 C-23.85 83.83 -20.92 79.76 -20.06 73.72 C-19.92 71.44 -19.9 69.19 -19.92 66.91 C-19.9 66.15 -19.88 65.39 -19.86 64.6 C-19.87 58.18 -21.44 53.03 -25.84 48.22 C-27.47 46.7 -29.15 45.27 -30.86 43.84 C-37.83 37.64 -41.29 33.75 -41.92 24.09 C-42.17 16.07 -40.83 9.94 -35.36 3.84 C-25 -5.98 -12.38 -6.87 0 0 Z " fill="#A72022" transform="translate(60.359375,48.15625)"/>
<path d="M0 0 C15.18 0 30.36 0 46 0 C46 1.32 46 2.64 46 4 C44.76 4.25 43.52 4.49 42.25 4.75 C38.46 5.71 36.39 6.78 34 10 C32.36 13.5 31.74 16.31 31.68 20.16 C31.66 21.17 31.64 22.19 31.62 23.23 C31.61 24.29 31.6 25.34 31.59 26.43 C31.57 27.4 31.55 28.38 31.53 29.39 C31.47 33.03 31.42 36.67 31.38 40.31 C31.31 44.39 31.31 44.39 31 65 C57.07 65 83.14 65 110 65 C109.9 56.89 109.79 48.79 109.69 40.44 C109.66 37.89 109.64 35.34 109.61 32.72 C109.58 30.69 109.55 28.65 109.51 26.62 C109.51 25.58 109.5 24.53 109.49 23.46 C109.38 17.56 108.89 13.19 106 8 C102.55 5.2 99.37 4.51 95 4 C95 2.68 95 1.36 95 0 C110.51 0 126.02 0 142 0 C141.67 1.32 141.34 2.64 141 4 C138.51 4.99 136.06 5.45 133.45 6 C129.99 7.41 129.5 8.55 128 12 C127.56 15.84 127.6 19.66 127.63 23.52 C127.62 24.68 127.62 25.85 127.62 27.05 C127.61 30.9 127.62 34.75 127.64 38.6 C127.64 41.27 127.64 43.95 127.64 46.62 C127.63 52.22 127.65 57.82 127.66 63.43 C127.68 69.9 127.69 76.38 127.68 82.85 C127.68 89.09 127.68 95.32 127.69 101.55 C127.7 104.2 127.7 106.86 127.7 109.51 C127.7 113.21 127.71 116.91 127.73 120.61 C127.72 121.71 127.72 122.81 127.72 123.94 C127.72 124.95 127.73 125.96 127.74 127 C127.74 127.87 127.74 128.75 127.75 129.65 C128.02 132.21 128.64 133.82 130 136 C131.8 137.01 131.8 137.01 133.88 137.69 C134.55 137.92 135.23 138.15 135.93 138.39 C137.94 138.98 139.96 139.51 142 140 C142 140.99 142 141.98 142 143 C126.49 143 110.98 143 95 143 C95 142.01 95 141.02 95 140 C95.76 139.79 96.52 139.58 97.3 139.37 C98.29 139.06 99.29 138.75 100.31 138.44 C100.81 138.29 100.81 138.29 103.3 137.56 C106.28 135.84 107.14 134.48 108.39 131.33 C109.73 126.21 109.48 120.88 109.51 115.63 C109.53 114.5 109.54 113.36 109.56 112.2 C109.62 107.98 109.65 103.77 109.69 99.56 C109.74 94.85 109.74 94.85 110 71 C83.93 71 57.86 71 31 71 C31.1 80.45 31.21 89.89 31.31 99.62 C31.34 102.6 31.36 105.57 31.39 108.64 C31.42 111 31.45 113.36 31.49 115.73 C31.49 116.34 31.49 116.34 31.51 119.43 C31.72 131.72 31.72 131.72 36.75 136.75 C39.71 138.4 42.72 139.18 46 140 C46 140.99 46 141.98 46 143 C30.82 143 15.64 143 0 143 C0 142.01 0 141.02 0 140 C0.6 139.84 1.21 139.68 1.83 139.52 C6.99 138.01 10.16 136.85 13 132 C13.92 129.06 14.13 126.39 14.14 123.32 C14.15 122.38 14.15 121.45 14.16 120.48 C14.16 119.97 14.16 119.97 14.16 117.39 C14.17 116.31 14.17 115.23 14.18 114.12 C14.19 110.54 14.2 106.97 14.2 103.39 C14.21 100.9 14.21 98.42 14.22 95.93 C14.23 90.72 14.24 85.5 14.24 80.29 C14.24 73.61 14.27 66.93 14.3 60.26 C14.32 55.12 14.32 49.98 14.32 44.85 C14.33 42.39 14.33 39.93 14.35 37.47 C14.36 34.02 14.36 30.57 14.36 27.13 C14.37 26.11 14.37 25.1 14.38 24.06 C14.35 18.01 13.6 13.49 11 8 C7.59 5.14 4.37 4.51 0 4 C0 2.68 0 1.36 0 0 Z " fill="#797876" transform="translate(357,43)"/>
<path d="M0 0 C15.18 0 30.36 0 46 0 C46 1.32 46 2.64 46 4 C45.31 4.17 44.63 4.34 43.92 4.52 C43.47 4.64 43.47 4.64 41.19 5.25 C40.29 5.48 39.4 5.71 38.48 5.95 C35.55 7.19 34.58 8.27 33 11 C32.03 14.1 31.88 16.9 31.89 20.14 C31.89 21.16 31.89 22.18 31.89 23.23 C31.89 24.32 31.9 25.42 31.9 26.55 C31.9 27.67 31.91 28.8 31.91 29.96 C31.91 33.56 31.92 37.15 31.94 40.75 C31.94 43.19 31.95 45.63 31.95 48.07 C31.96 54.04 31.98 60.02 32 66 C39.17 58.93 46.32 51.84 53.46 44.75 C56.78 41.45 60.1 38.16 63.43 34.88 C66.64 31.71 69.84 28.53 73.04 25.34 C74.26 24.13 75.48 22.92 76.71 21.71 C78.43 20.02 80.13 18.32 81.84 16.62 C82.35 16.12 82.86 15.62 83.39 15.11 C86.58 11.88 87.06 10.72 88 6 C86.35 5.67 86.35 5.67 78 4 C78 2.68 78 1.36 78 0 C91.2 0 104.4 0 118 0 C118 1.32 118 2.64 118 4 C117.12 4.11 116.23 4.22 115.32 4.34 C114.12 4.54 112.92 4.73 111.69 4.94 C110.52 5.11 109.34 5.29 108.14 5.46 C95.22 9.25 84.04 24.8 74.94 34.06 C71.79 37.27 68.63 40.47 65.46 43.66 C64.74 44.4 64.02 45.13 63.28 45.89 C62.95 46.23 62.95 46.23 61.27 47.93 C60.68 48.52 60.1 49.12 59.5 49.73 C58 51 58 51 56 51 C56 51.66 56 52.32 56 53 C54.36 54.59 54.36 54.59 52.19 56.38 C49.36 58.72 47.11 60.98 45 64 C45.66 65.32 46.32 66.64 47 68 C47.66 68 48.32 68 49 68 C50.31 69.47 51.54 71.01 52.75 72.56 C56.63 77.43 60.72 81.99 65 86.5 C69.77 91.54 74.26 96.69 78.59 102.12 C82.17 106.39 86 110.4 89.83 114.43 C93.39 118.21 96.73 122.05 99.94 126.12 C107.13 134.98 114.09 137.29 125 140 C125 140.99 125 141.98 125 143 C120.48 143.27 115.97 143.47 111.45 143.6 C109.92 143.66 108.38 143.73 106.85 143.83 C94.17 144.6 94.17 144.6 88.84 140.66 C86.32 137.89 84.15 135.06 82 132 C80.67 130.48 79.32 128.98 77.94 127.5 C75.85 125.18 75.01 124.03 74 121 C73.34 121 72.68 121 72 121 C70.5 119.32 69.08 117.58 67.69 115.81 C65.3 112.78 62.96 109.96 60.21 107.26 C58 105 58 105 58 103 C57.34 103 56.68 103 56 103 C54.67 101.51 53.41 99.95 52.19 98.38 C47.82 92.9 43.16 87.77 38.34 82.69 C37.81 82.12 37.27 81.55 36.72 80.97 C36.25 80.47 35.77 79.97 35.28 79.45 C34 78 34 78 32 75 C31.92 82.56 31.87 90.12 31.84 97.69 C31.82 100.26 31.8 102.83 31.77 105.4 C31.74 109.1 31.72 112.8 31.71 116.5 C31.69 117.65 31.68 118.79 31.66 119.97 C31.66 126.07 31.88 130.68 35 136 C37.7 137.56 37.7 137.56 40.69 138.44 C41.68 138.75 42.68 139.05 43.7 139.37 C44.46 139.58 45.22 139.79 46 140 C46 140.99 46 141.98 46 143 C30.49 143 14.98 143 -1 143 C-1 142.01 -1 141.02 -1 140 C-0.32 139.84 0.35 139.68 1.05 139.52 C1.94 139.29 2.83 139.05 3.75 138.81 C4.63 138.59 5.51 138.37 6.42 138.14 C9.95 136.58 11.01 135.35 13 132 C13.61 128.14 13.56 124.31 13.53 120.4 C13.54 119.82 13.54 119.82 13.56 116.85 C13.58 112.97 13.58 109.1 13.57 105.22 C13.57 103.21 13.57 101.19 13.58 99.18 C13.6 92.85 13.59 86.53 13.58 80.2 C13.56 73.68 13.58 67.16 13.61 60.64 C13.63 55.03 13.64 49.43 13.63 43.82 C13.63 40.47 13.63 37.13 13.65 33.78 C13.67 30.05 13.65 26.33 13.63 22.6 C13.64 21.49 13.65 20.38 13.67 19.25 C13.57 11.76 13.57 11.76 10.61 7.83 C8.01 6.01 6.3 5.2 3.19 4.69 C2.4 4.55 1.61 4.41 0.79 4.26 C0.2 4.18 -0.39 4.09 -1 4 C-0.67 2.68 -0.34 1.36 0 0 Z " fill="#7C7B7A" transform="translate(226,43)"/>
<path d="M0 0 C6.69 4.77 10.68 10.54 12.26 18.61 C13.2 25.49 11.62 31.96 7.85 37.78 C2.91 43.98 -3.01 48.07 -10.99 48.98 C-16.51 49.09 -21.39 48.59 -26.67 47.07 C-36.25 44.94 -44.73 47.49 -53.74 50.61 C-55.07 50.96 -56.4 51.3 -57.74 51.61 C-57.74 50.62 -57.74 49.63 -57.74 48.61 C-56.42 47.32 -56.42 47.32 -54.62 45.98 C-46.77 39.55 -43.06 31.2 -41.11 21.43 C-39.15 11.65 -36.38 5.93 -28.12 0.17 C-19.51 -5.37 -8.79 -5.03 0 0 Z " fill="#A71F21" transform="translate(137.7421875,47.390625)"/>
<path d="M0 0 C2.31 0 4.62 0 7 0 C8.73 1.73 8.12 3.97 8.13 6.28 C8.13 7.04 8.13 7.81 8.13 8.59 C8.13 9.4 8.13 10.2 8.13 11.03 C8.14 13.75 8.13 16.46 8.13 19.18 C8.13 21.12 8.13 23.06 8.13 25 C8.14 30.28 8.14 35.57 8.13 40.85 C8.13 46.36 8.13 51.88 8.14 57.4 C8.14 66.66 8.14 75.92 8.13 85.19 C8.12 95.92 8.13 106.64 8.13 117.37 C8.14 126.56 8.14 135.75 8.13 144.95 C8.13 150.45 8.13 155.94 8.14 161.44 C8.14 166.61 8.14 171.78 8.13 176.94 C8.13 178.85 8.13 180.75 8.13 182.65 C8.14 185.24 8.13 187.82 8.13 190.41 C8.13 191.17 8.13 191.93 8.13 192.72 C8.11 197.89 8.11 197.89 7 199 C4.69 199 2.38 199 0 199 C0 133.33 0 67.66 0 0 Z " fill="#2D2D2D" transform="translate(182,16)"/>
<path d="M0 0 C1.98 0 3.96 0 6 0 C6.14 0.74 6.29 1.49 6.44 2.25 C6.9 4.52 7.42 6.76 8 9 C8.99 7.02 9.98 5.04 11 3 C10.34 3 9.68 3 9 3 C9 2.01 9 1.02 9 0 C11.31 0 13.62 0 16 0 C16.33 2.97 16.66 5.94 17 9 C19 3.38 19 3.38 19 0 C20.65 0 22.3 0 24 0 C24.33 0.99 24.66 1.98 25 3 C24.34 3 23.68 3 23 3 C22.81 3.65 22.61 4.3 22.41 4.98 C21.01 9.68 19.59 14.36 18 19 C17.01 19 16.02 19 15 19 C14.01 16.36 13.02 13.72 12 11 C11.01 13.64 10.02 16.28 9 19 C8.01 19 7.02 19 6 19 C5.33 16.9 4.66 14.79 4 12.69 C3.63 11.52 3.26 10.34 2.88 9.14 C2 6 2 6 2 3 C1.34 3 0.68 3 0 3 C0 2.01 0 1.02 0 0 Z " fill="#AEAEAE" transform="translate(332,195)"/>
<path d="M0 0 C2.31 0 4.62 0 7 0 C7.33 2.97 7.66 5.94 8 9 C10.09 4.57 10.09 4.57 9.62 1.69 C9.42 1.13 9.21 0.57 9 0 C11.31 0 13.62 0 16 0 C16.33 2.97 16.66 5.94 17 9 C19 3.38 19 3.38 19 0 C20.65 0 22.3 0 24 0 C24 3.21 23.36 4.88 22.12 7.81 C20.6 11.5 19.2 15.19 18 19 C17.01 19 16.02 19 15 19 C14.34 16.03 13.68 13.06 13 10 C12.34 10 11.68 10 11 10 C10.34 12.97 9.68 15.94 9 19 C8.01 19 7.02 19 6 19 C5.33 17.09 4.66 15.17 4 13.25 C3.63 12.18 3.26 11.12 2.88 10.02 C2 7 2 7 2 3 C1.34 3 0.68 3 0 3 C0 2.01 0 1.02 0 0 Z " fill="#BEBFBE" transform="translate(474,195)"/>
<path d="M0 0 C2.31 0 4.62 0 7 0 C7 0.99 7 1.98 7 3 C6.34 3 5.68 3 5 3 C5 4.65 5 6.3 5 8 C7.31 8 9.62 8 12 8 C11.34 5.69 10.68 3.38 10 1 C13.29 0.2 14.71 -0.1 18 1 C18 1.66 18 2.32 18 3 C17.34 3 16.68 3 16 3 C16 7.62 16 12.24 16 17 C16.66 17 17.32 17 18 17 C18 17.66 18 18.32 18 19 C15.69 19 13.38 19 11 19 C10.67 18.34 10.34 17.68 10 17 C10.66 17 11.32 17 12 17 C12 15.02 12 13.04 12 11 C9.69 11 7.38 11 5 11 C5.66 13.64 6.32 16.28 7 19 C4.36 19 1.72 19 -1 19 C-1 18.34 -1 17.68 -1 17 C-0.34 17 0.32 17 1 17 C0.93 16.02 0.86 15.05 0.78 14.04 C0.69 12.77 0.6 11.5 0.5 10.19 C0.45 9.56 0.45 9.56 0.22 6.36 C0.08 4.24 0 2.12 0 0 Z " fill="#A1A0A0" transform="translate(401,195)"/>
<path d="M0 0 C2.31 0 4.62 0 7 0 C7 1.65 7 3.3 7 5 C7.66 3.35 8.32 1.7 9 0 C10.98 0 12.96 0 15 0 C15.33 0.99 15.66 1.98 16 3 C15.22 3.41 14.43 3.82 13.62 4.25 C10.94 6.04 10.12 7.05 9 10 C11.39 13.24 13.2 15.51 17 17 C17 17.66 17 18.32 17 19 C14.25 19.25 14.25 19.25 11 19 C8.62 17 8.62 17 7 15 C7 16.32 7 17.64 7 19 C4.69 19 2.38 19 0 19 C0.33 18.01 0.66 17.02 1 16 C1.22 13.77 1.41 11.54 1.56 9.31 C1.65 8.13 1.73 6.95 1.82 5.74 C1.88 4.83 1.94 3.93 2 3 C1.34 3 0.68 3 0 3 C0 2.01 0 1.02 0 0 Z " fill="#B1B1B1" transform="translate(224,195)"/>
<path d="M0 0 C6.39 1.25 9.14 5.16 13 10 C13.33 10.33 13.66 10.66 14 11 C14.14 3.57 14.14 3.57 13 0 C14.98 0 16.96 0 19 0 C19 0.99 19 1.98 19 3 C18.34 3 17.68 3 17 3 C17 8.28 17 13.56 17 19 C13.24 17.12 11.85 15.98 9.25 12.88 C8.64 12.15 8.02 11.43 7.39 10.68 C7.16 10.4 7.16 10.4 6 9 C6 12.3 6 15.6 6 19 C4.02 19 2.04 19 0 19 C0.33 18.01 0.66 17.02 1 16 C1.07 13.94 1.08 11.87 1.06 9.81 C1.06 9.27 1.06 9.27 1.04 6.52 C1.03 6.1 1.03 6.1 1 4 C0.34 3.67 -0.32 3.34 -1 3 C-0.67 2.01 -0.34 1.02 0 0 Z " fill="#969695" transform="translate(258,195)"/>
<path d="M0 0 C2.45 1.9 3.42 2.77 4.25 5.75 C4.17 9.99 3.63 12.2 1.19 15.69 C-2.13 18.02 -3.86 18.45 -7.82 18.16 C-11.11 17.46 -12.61 16.34 -14.75 13.75 C-16.09 9.76 -16.17 6.78 -14.56 2.88 C-10.53 -1.86 -5.68 -2.58 0 0 Z M-10.75 3.75 C-11.76 7.06 -11.88 9.18 -11.12 12.56 C-9.75 14.75 -9.75 14.75 -7.44 15.88 C-4.75 15.75 -4.75 15.75 -1.88 13.75 C0.25 10.75 0.25 10.75 0.31 7.12 C-0.75 3.75 -0.75 3.75 -2.69 1.81 C-6.34 -0.07 -7.92 1.01 -10.75 3.75 Z " fill="#AEAEAE" transform="translate(452.75,196.25)"/>
<path d="M0 0 C2.9 2.22 3.02 3.09 3.88 6.88 C4.23 10.78 3.54 12.91 1 16 C-2.68 18.46 -5.72 18.81 -10 18 C-13.35 15.57 -14.7 13.95 -15.94 10 C-16.01 6.64 -15.71 4.88 -14 2 C-9.84 -1.78 -5.17 -1.53 0 0 Z M-6 1 C-10.72 3.3 -10.72 3.3 -11.94 6.38 C-12.01 9.47 -11.47 11.28 -10 14 C-7 16 -7 16 -4.44 15.88 C-2 15 -2 15 -0.62 13.38 C0.29 9.89 -0.06 7.46 -1 4 C-3.56 2.06 -3.56 2.06 -6 1 Z " fill="#979695" transform="translate(311,196)"/>
<path d="M0 0 C0 3 0 3 -2 6 C7.24 6 16.48 6 26 6 C24.68 5.34 23.36 4.68 22 4 C22.33 3.34 22.66 2.68 23 2 C26.63 3.32 30.26 4.64 34 6 C34 6.99 34 7.98 34 9 C18.49 9 2.98 9 -13 9 C-13 8.01 -13 7.02 -13 6 C-12.31 5.82 -11.63 5.64 -10.92 5.45 C-10.02 5.2 -9.12 4.95 -8.19 4.69 C-7.29 4.44 -6.4 4.2 -5.48 3.95 C-2.95 2.98 -1.73 2.05 0 0 Z " fill="#989896" transform="translate(238,177)"/>
<path d="M0 0 C0.33 0.99 0.66 1.98 1 3 C10.24 3 19.48 3 29 3 C28.83 2.67 28.83 2.67 28 1 C29.49 1.33 29.49 1.33 37 3 C37 3.99 37 4.98 37 6 C21.82 6 6.64 6 -9 6 C-9 5.01 -9 4.02 -9 3 C-6.03 2.01 -3.06 1.02 0 0 Z " fill="#949392" transform="translate(366,180)"/>
<path d="M0 0 C3.63 0.99 7.26 1.98 11 3 C11 3.99 11 4.98 11 6 C-4.51 6 -20.02 6 -36 6 C-36 5.01 -36 4.02 -36 3 C-34.85 2.84 -34.85 2.84 -29 2 C-29.99 2.66 -30.98 3.32 -32 4 C-20.78 4 -9.56 4 2 4 C1.34 2.68 0.68 1.36 0 0 Z " fill="#B0AFAE" transform="translate(488,180)"/>
<path d="M0 0 C2.02 1.53 2.85 2.5 3.58 4.94 C3.66 5.62 3.73 6.3 3.81 7 C3.9 7.68 3.99 8.36 4.08 9.06 C4 11 4 11 2 14 C1.67 10.7 1.34 7.4 1 4 C0.34 4.66 -0.32 5.32 -1 6 C-2.32 4.68 -3.64 3.36 -5 2 C-6.65 2.66 -8.3 3.32 -10 4 C-10.33 6.97 -10.66 9.94 -11 13 C-13 11 -13 11 -13.06 7.5 C-13.04 6.34 -13.02 5.19 -13 4 C-13.33 3.34 -13.66 2.68 -14 2 C-9.55 -1.59 -5.32 -1.57 0 0 Z " fill="#B2B2B2" transform="translate(311,196)"/>
<path d="M0 0 C0.99 0.33 1.98 0.66 3 1 C3 1.66 3 2.32 3 3 C2.34 3 1.68 3 1 3 C1 7.62 1 12.24 1 17 C1.66 17 2.32 17 3 17 C3 17.66 3 18.32 3 19 C0.69 19 -1.62 19 -4 19 C-4.33 18.34 -4.66 17.68 -5 17 C-4.34 17 -3.68 17 -3 17 C-3 15.02 -3 13.04 -3 11 C-5.31 11 -7.62 11 -10 11 C-9.34 13.64 -8.68 16.28 -8 19 C-10.64 19 -13.28 19 -16 19 C-16 18.34 -16 17.68 -16 17 C-15.34 17 -14.68 17 -14 17 C-13.67 16.34 -13.34 15.68 -13 15 C-13 15.99 -13 16.98 -13 18 C-12.34 18 -11.68 18 -11 18 C-11 15.36 -11 12.72 -11 10 C-8.03 10 -5.06 10 -2 10 C-2 12.64 -2 15.28 -2 18 C-1.34 18 -0.68 18 0 18 C0 12.06 0 6.12 0 0 Z " fill="#C0C0C0" transform="translate(416,195)"/>
<path d="M0 0 C2.31 0 4.62 0 7 0 C6.98 0.68 6.95 1.35 6.93 2.05 C6.91 2.94 6.89 3.83 6.88 4.75 C6.86 5.19 6.86 5.19 6.8 7.42 C7.01 10.14 7.72 11.63 9 14 C9.12 16.75 9.12 16.75 9 19 C8.01 19 7.02 19 6 19 C5.33 17.09 4.66 15.17 4 13.25 C3.63 12.18 3.26 11.12 2.88 10.02 C2 7 2 7 2 3 C1.34 3 0.68 3 0 3 C0 2.01 0 1.02 0 0 Z " fill="#A4A4A3" transform="translate(474,195)"/>
<path d="M0 0 C1.98 0 3.96 0 6 0 C6.83 3.77 7.27 7.46 7.56 11.31 C7.65 12.38 7.73 13.45 7.82 14.55 C7.88 15.36 7.94 16.17 8 17 C7.01 16.67 6.02 16.34 5 16 C4.05 13.82 4.05 13.82 3.31 11.12 C3.06 10.24 2.81 9.36 2.55 8.45 C2 6 2 6 2 3 C1.34 3 0.68 3 0 3 C0 2.01 0 1.02 0 0 Z " fill="#A0A0A0" transform="translate(332,195)"/>
<path d="M0 0 C1.98 0.66 3.96 1.32 6 2 C5.01 2.33 4.02 2.66 3 3 C3.33 3.5 3.33 3.5 5 6 C5.41 9.14 5.41 9.14 5.62 12.69 C5.7 13.87 5.77 15.05 5.85 16.26 C5.9 17.17 5.95 18.07 6 19 C4.02 19 2.04 19 0 19 C0.33 18.01 0.66 17.02 1 16 C1.07 13.94 1.08 11.87 1.06 9.81 C1.06 9.27 1.06 9.27 1.04 6.52 C1.03 6.1 1.03 6.1 1 4 C0.34 3.67 -0.32 3.34 -1 3 C-0.67 2.01 -0.34 1.02 0 0 Z " fill="#BFBFBF" transform="translate(258,195)"/>
<path d="M0 0 C1.65 0 3.3 0 5 0 C5.33 0.99 5.66 1.98 6 3 C5.34 3 4.68 3 4 3 C3.81 3.65 3.61 4.3 3.41 4.98 C2.01 9.68 0.59 14.36 -1 19 C-1.99 18.67 -2.98 18.34 -4 18 C-3.34 18 -2.68 18 -2 18 C-2.33 15.03 -2.66 12.06 -3 9 C-2.34 8.67 -1.68 8.34 -1 8 C-0.59 6.15 -0.59 6.15 -0.38 3.94 C-0.25 2.64 -0.13 1.34 0 0 Z " fill="#B7B6B7" transform="translate(351,195)"/>
<path d="M0 0 C0.66 0.16 0.66 0.16 4 1 C4 6.61 4 12.22 4 18 C3.34 18 2.68 18 2 18 C0.96 14.89 0.69 12.26 0.44 9 C0.35 7.95 0.27 6.9 0.18 5.81 C0.06 3.88 0 1.94 0 0 Z " fill="#737373" transform="translate(401,195)"/>
<path d="M0 0 C2.84 1.29 4.52 2.31 6.31 4.88 C7.11 7.35 7.14 9.42 7 12 C5 9 5 9 4 6 C3.34 6.66 2.68 7.32 2 8 C1.75 7.36 1.5 6.72 1.25 6.06 C0 4 0 4 -1.88 3.12 C-4.47 2.97 -5.8 3.67 -8 5 C-8 4.34 -8 3.68 -8 3 C-8.66 2.67 -9.32 2.34 -10 2 C-6.58 -0.1 -3.98 -0.41 0 0 Z " fill="#ACACAB" transform="translate(450,195)"/>
<path d="M0 0 C0 0.99 0 1.98 0 3 C-0.33 3.33 -0.66 3.66 -1 4 C3.62 4.16 3.62 4.16 27 5 C27 5.33 27 5.66 27 6 C14.79 6 2.58 6 -10 6 C-7 4 -7 4 -4 4 C-4 3.34 -4 2.68 -4 2 C-2.68 1.34 -1.36 0.68 0 0 Z " fill="#7B7B79" transform="translate(463,179)"/>
<path d="M0 0 C2.74 2.74 3.16 5.26 4 9 C3.62 11.44 3.62 11.44 3 13 C2.67 11.02 2.34 9.04 2 7 C1.34 7 0.68 7 0 7 C-0.33 8.98 -0.66 10.96 -1 13 C-3.8 10.93 -4.03 9.86 -4.69 6.31 C-4.79 5.22 -4.89 4.13 -5 3 C-4.67 3.5 -4.67 3.5 -3 6 C-2.01 4.02 -1.02 2.04 0 0 Z " fill="#B6B5B5" transform="translate(485,198)"/>
<path d="M0 0 C0.33 1.32 0.66 2.64 1 4 C0.34 4 -0.32 4 -1 4 C-1.25 4.56 -1.5 5.11 -1.75 5.69 C-3.22 8.4 -5.03 10.64 -7 13 C-5.02 13 -3.04 13 -1 13 C-3.69 14.79 -5.66 15.66 -8.69 16.62 C-9.09 16.76 -9.09 16.76 -11.14 17.41 C-11.75 17.61 -12.37 17.8 -13 18 C-13 17.01 -13 16.02 -13 15 C-11.68 13.71 -11.68 13.71 -9.88 12.38 C-5.56 8.89 -2.85 4.7 0 0 Z " fill="#CC7F7F" transform="translate(93,81)"/>
<path d="M0 0 C0.82 0.16 0.82 0.16 5 1 C5 6.61 5 12.22 5 18 C4.01 18 3.02 18 2 18 C2 13.05 2 8.1 2 3 C1.34 3 0.68 3 0 3 C0 2.01 0 1.02 0 0 Z " fill="#8E8E8D" transform="translate(224,195)"/>
<path d="M0 0 C3.41 1.2 5.56 2.33 8 5 C8.66 5.33 9.32 5.66 10 6 C10 6.66 10 7.32 10 8 C6.38 8.33 4.6 8.45 1.62 6.25 C0 4 0 4 0 0 Z " fill="#A3A3A3" transform="translate(231,206)"/>
<path d="M0 0 C1.98 0 3.96 0 6 0 C6 0.99 6 1.98 6 3 C5.34 3 4.68 3 4 3 C4 8.28 4 13.56 4 19 C3.01 18.67 2.02 18.34 1 18 C1.66 17.67 2.32 17.34 3 17 C3 12.71 3 8.42 3 4 C2.01 3.67 1.02 3.34 0 3 C0 2.01 0 1.02 0 0 Z " fill="#ADADAC" transform="translate(271,195)"/>
<path d="M0 0 C0.99 0 1.98 0 3 0 C2.93 0.7 2.86 1.4 2.78 2.12 C2.69 3.03 2.6 3.94 2.5 4.88 C2.41 5.78 2.31 6.68 2.22 7.62 C2 10 2 10 2 12 C1.01 12 0.02 12 -1 12 C-2.43 3.43 -2.43 3.43 0 0 Z " fill="#9A9A99" transform="translate(439,198)"/>
<path d="M0 0 C3.85 4.83 5.38 9.8 5 16 C4.34 16 3.68 16 3 16 C1.35 12.34 0.66 9.19 0.38 5.19 C0.3 4.21 0.23 3.24 0.15 2.23 C0.12 1.86 0.12 1.86 0 0 Z " fill="#9F9E9E" transform="translate(344,197)"/>
<path d="M0 0 C0.82 0.16 0.82 0.16 5 1 C6.24 6.32 7.31 11.58 8 17 C7.34 16.67 6.68 16.34 6 16 C5.37 13.84 4.85 11.64 4.38 9.44 C4.11 8.24 3.85 7.04 3.59 5.81 C3.39 4.88 3.2 3.95 3 3 C2.01 3 1.02 3 0 3 C0 2.01 0 1.02 0 0 Z " fill="#828181" transform="translate(483,195)"/>
<path d="M0 0 C1.65 0 3.3 0 5 0 C5 3.87 3.58 6.51 2 10 C1.34 10 0.68 10 0 10 C0 6.7 0 3.4 0 0 Z " fill="#AFAFAE" transform="translate(493,195)"/>
<path d="M0 0 C1.98 0 3.96 0 6 0 C6.33 0.99 6.66 1.98 7 3 C2.25 5.88 2.25 5.88 0 7 C-0.66 6.34 -1.32 5.68 -2 5 C-1.34 3.35 -0.68 1.7 0 0 Z " fill="#B7B7B7" transform="translate(233,195)"/>
<path d="M0 0 C0.66 0.33 1.32 0.66 2 1 C0.92 2.3 -0.16 3.59 -1.25 4.88 C-1.85 5.59 -2.46 6.31 -3.08 7.05 C-4.97 8.97 -6.54 9.96 -9 11 C-7.6 5.71 -4.15 3.23 0 0 Z " fill="#C36767" transform="translate(31,47)"/>
<path d="M0 0 C0.9 2.69 1.28 4.89 1.56 7.69 C1.65 8.5 1.73 9.3 1.82 10.14 C1.88 10.75 1.94 11.37 2 12 C0.05 11.18 0.05 11.18 -2 10 C-2.99 6.41 -3.18 4.55 -2 1 C-1.34 0.67 -0.68 0.34 0 0 Z " fill="#939292" transform="translate(298,199)"/>
<path d="M0 0 C0.66 0.66 1.32 1.32 2 2 C1.46 8.09 1.46 8.09 0 11 C-0.99 11 -1.98 11 -3 11 C-3 10.34 -3 9.68 -3 9 C-2.34 9 -1.68 9 -1 9 C-1.33 6.36 -1.66 3.72 -2 1 C-1.34 0.67 -0.68 0.34 0 0 Z " fill="#B6B6B6" transform="translate(341,203)"/>
<path d="M0 0 C2.31 0 4.62 0 7 0 C6.67 1.65 6.34 3.3 6 5 C5.34 4.67 4.68 4.34 4 4 C4 5.65 4 7.3 4 9 C3.34 8.34 2.68 7.68 2 7 C2 5.68 2 4.36 2 3 C1.34 3 0.68 3 0 3 C0 2.01 0 1.02 0 0 Z " fill="#B0B0B0" transform="translate(474,195)"/>
<path d="M0 0 C2.38 0.25 2.38 0.25 5 1 C7.18 3.9 7.2 6.45 7 10 C5 7 5 7 4 4 C3.34 4.66 2.68 5.32 2 6 C1.34 4.02 0.68 2.04 0 0 Z " fill="#BBBABA" transform="translate(450,197)"/>
<path d="M0 0 C0.82 0.16 0.82 0.16 5 1 C5.12 3.88 5.12 3.88 5 7 C4.34 7.66 3.68 8.32 3 9 C2.67 7.02 2.34 5.04 2 3 C1.34 3 0.68 3 0 3 C0 2.01 0 1.02 0 0 Z " fill="#979696" transform="translate(332,195)"/>
<path d="M0 0 C0.33 0.16 0.33 0.16 2 1 C2.59 3.65 2.74 6.29 3 9 C2.01 9.33 1.02 9.66 0 10 C0 6.7 0 3.4 0 0 Z " fill="#848483" transform="translate(453,200)"/>
<path d="M0 0 C0.93 0.52 1.86 1.03 2.81 1.56 C2.81 2.22 2.81 2.88 2.81 3.56 C-0.56 3.25 -0.56 3.25 -4.19 2.56 C-4.85 1.57 -5.51 0.58 -6.19 -0.44 C-3.19 -1.44 -3.19 -1.44 0 0 Z " fill="#B8B8B8" transform="translate(303.1875,210.4375)"/>
<path d="M0 0 C2.97 0.99 5.94 1.98 9 3 C9 3.66 9 4.32 9 5 C6.69 5 4.38 5 2 5 C2 4.34 2 3.68 2 3 C1.34 2.67 0.68 2.34 0 2 C0 1.34 0 0.68 0 0 Z " fill="#969594" transform="translate(488,180)"/>
<path d="M0 0 C0.99 0 1.98 0 3 0 C2.67 2.64 2.34 5.28 2 8 C1.01 8 0.02 8 -1 8 C-0.67 5.36 -0.34 2.72 0 0 Z " fill="#AFAFAF" transform="translate(490,206)"/>
<path d="M0 0 C0.33 0.99 0.66 1.98 1 3 C1.66 3.33 2.32 3.66 3 4 C1.68 4.99 0.36 5.98 -1 7 C-3 6 -3 6 -4 4 C-2.68 2.68 -1.36 1.36 0 0 Z " fill="#BABAB9" transform="translate(452,207)"/>
<path d="M0 0 C0.66 0.16 0.66 0.16 4 1 C4 3.97 4 6.94 4 10 C3.67 10 3.34 10 3 10 C3 8.02 3 6.04 3 4 C1.68 3.34 0.36 2.68 -1 2 C-0.67 1.34 -0.34 0.68 0 0 Z " fill="#949494" transform="translate(401,195)"/>
<path d="M0 0 C2.04 1.69 2.92 2.64 3.51 5.26 C3.57 6.06 3.63 6.86 3.69 7.69 C3.75 8.5 3.82 9.3 3.89 10.14 C3.92 10.75 3.96 11.37 4 12 C1.49 9.49 0.95 7.39 0 4 C0 2.68 0 1.36 0 0 Z " fill="#7C7B7A" transform="translate(477,197)"/>
<path d="M0 0 C1.65 0 3.3 0 5 0 C5.33 0.99 5.66 1.98 6 3 C4.68 3 3.36 3 2 3 C1.67 4.32 1.34 5.64 1 7 C0.67 4.69 0.34 2.38 0 0 Z " fill="#AAAAAA" transform="translate(351,195)"/>
<path d="M0 0 C1.98 0 3.96 0 6 0 C6.33 0.99 6.66 1.98 7 3 C4.69 3 2.38 3 0 3 C0 2.01 0 1.02 0 0 Z " fill="#919190" transform="translate(343,182)"/>
<path d="M0 0 C2.5 2.94 3.47 5.18 4 9 C3.01 9 2.02 9 1 9 C0.67 6.03 0.34 3.06 0 0 Z " fill="#7E7D7C" transform="translate(344,197)"/>
<path d="M0 0 C-3.06 2.62 -3.73 3 -8 3 C-7.67 2.01 -7.34 1.02 -7 0 C-2.25 -1.12 -2.25 -1.12 0 0 Z " fill="#9A9998" transform="translate(235,182)"/>
</svg>
